<?xml version="1.0" encoding="utf-8"?>
<!-- Generator: Adobe Illustrator 16.0.0, SVG Export Plug-In . SVG Version: 6.00 Build 0)  -->
<!DOCTYPE svg PUBLIC "-//W3C//DTD SVG 1.1//EN" "http://www.w3.org/Graphics/SVG/1.1/DTD/svg11.dtd">
<svg version="1.1" id="图层_1" xmlns="http://www.w3.org/2000/svg" xmlns:xlink="http://www.w3.org/1999/xlink" x="0px" y="0px"
	 width="28.347px" height="28.347px" viewBox="0 0 28.347 28.347" enable-background="new 0 0 28.347 28.347" xml:space="preserve">
<g>
	
		<path fill="#231815" stroke="#231815" stroke-width="1.5" stroke-linecap="round" stroke-linejoin="round" stroke-miterlimit="10" d="
		M15.591,14.173l9.921-5.67l-9.921-5.668v2.834h-2.834c-5.479,0-9.922,4.442-9.922,9.922c0,5.479,4.442,9.921,9.922,9.921
		l-0.001-0.001c-3.913,0-7.086-3.172-7.086-7.086s3.173-7.086,7.086-7.086h2.835V14.173z"/>
	<g>
		<g>
			<path fill="none" stroke="#231815" stroke-width="1.5" stroke-linecap="round" stroke-linejoin="round" d="M22.679,15.591
				c0,0.509-0.038,1.008-0.112,1.497"/>
			
				<path fill="none" stroke="#231815" stroke-width="1.5" stroke-linecap="round" stroke-linejoin="round" stroke-dasharray="2.516,2.516" d="
				M21.877,19.502c-1.168,2.719-3.518,4.812-6.402,5.632"/>
			<path fill="none" stroke="#231815" stroke-width="1.5" stroke-linecap="round" stroke-linejoin="round" d="M14.253,25.399
				c-0.488,0.074-0.988,0.112-1.497,0.112"/>
		</g>
	</g>
</g>
</svg>
