<?xml version="1.0" encoding="utf-8"?>
<!-- Generator: Adobe Illustrator 16.0.0, SVG Export Plug-In . SVG Version: 6.00 Build 0)  -->
<!DOCTYPE svg PUBLIC "-//W3C//DTD SVG 1.1//EN" "http://www.w3.org/Graphics/SVG/1.1/DTD/svg11.dtd">
<svg version="1.1" id="图层_1" xmlns="http://www.w3.org/2000/svg" xmlns:xlink="http://www.w3.org/1999/xlink" x="0px" y="0px"
	 width="28.347px" height="28.347px" viewBox="0 0 28.347 28.347" enable-background="new 0 0 28.347 28.347" xml:space="preserve">
<g>
	<g>
		<path fill="#231815" d="M17.006,4.252c0-0.78-0.638-1.417-1.418-1.417H4.25c-0.779,0-1.417,0.638-1.417,1.417v11.34
			c0,0.779,0.638,1.417,1.417,1.417h11.338c0.78,0,1.418-0.638,1.418-1.417V4.252z"/>
		<path fill="none" stroke="#231815" stroke-width="1.5" stroke-linecap="round" stroke-miterlimit="10" d="M17.006,4.252
			c0-0.78-0.638-1.417-1.418-1.417H4.25c-0.779,0-1.417,0.638-1.417,1.417v11.34c0,0.779,0.638,1.417,1.417,1.417h11.338
			c0.78,0,1.418-0.638,1.418-1.417V4.252z"/>
	</g>
	<g>
		<path fill="none" stroke="#231815" stroke-width="1.5" stroke-linecap="round" stroke-miterlimit="10" d="M24.094,11.34
			c0.779,0,1.417,0.638,1.417,1.417v11.341c0,0.779-0.638,1.417-1.417,1.417H12.755c-0.78,0-1.417-0.639-1.417-1.417l-0.001-1.42
			c0-0.779,0.638-1.417,1.417-1.417h7.086c0.78,0,1.418-0.638,1.418-1.417v-7.087c0-0.779,0.638-1.417,1.418-1.417H24.094z"/>
	</g>
	<g>
		<path fill="none" stroke="#231815" stroke-width="1.5" stroke-linecap="round" stroke-miterlimit="10" d="M19.84,7.087
			c0.78,0,1.418,0.637,1.418,1.417v11.34c0,0.779-0.638,1.417-1.418,1.417H8.502c-0.779,0-1.417-0.638-1.417-1.417v-1.418
			c0-0.779,0.638-1.417,1.417-1.417h7.086c0.78,0,1.418-0.638,1.418-1.417V8.506c0-0.78,0.638-1.418,1.418-1.418L19.84,7.087z"/>
	</g>
</g>
<g display="none">
	<g display="inline">
		<path fill="#231815" d="M18.424,4.252c0-0.78-0.638-1.417-1.418-1.417H4.25c-0.779,0-1.417,0.638-1.417,1.417v12.757
			c0,0.779,0.638,1.417,1.417,1.417h12.756c0.78,0,1.418-0.638,1.418-1.417V4.252z"/>
		<path fill="none" stroke="#231815" stroke-width="1.5" stroke-linecap="round" stroke-miterlimit="10" d="M18.424,4.252
			c0-0.78-0.638-1.417-1.418-1.417H4.25c-0.779,0-1.417,0.638-1.417,1.417v12.757c0,0.779,0.638,1.417,1.417,1.417h12.756
			c0.78,0,1.418-0.638,1.418-1.417V4.252z"/>
	</g>
	<g display="inline">
		<path fill="none" stroke="#231815" stroke-width="1.5" stroke-linecap="round" stroke-miterlimit="10" d="M11.337,18.426
			c-0.78,0-1.417,0.638-1.417,1.417v4.255c0,0.779,0.638,1.417,1.418,1.417h12.756c0.779,0,1.417-0.639,1.417-1.417V11.339
			c0-0.779-0.638-1.417-1.417-1.417H19.84c-0.779,0-1.417,0.638-1.417,1.417l0.001,5.67c0,0.779-0.638,1.417-1.418,1.417H11.337z"/>
	</g>
</g>
<g display="none">
	<g display="inline">
		<path fill="none" stroke="#231815" stroke-width="1.5" stroke-linecap="round" stroke-miterlimit="10" d="M9.92,24.096
			c0,0.779,0.639,1.417,1.418,1.417h12.756c0.779,0,1.418-0.637,1.418-1.417V11.34c0-0.779-0.639-1.417-1.418-1.417H11.337
			c-0.78,0-1.417,0.638-1.417,1.417V24.096z"/>
	</g>
	<g display="inline">
		<path fill="#231815" d="M2.834,17.009c0,0.779,0.637,1.417,1.417,1.417l4.251,0.001c0.779,0,1.418-0.638,1.418-1.417v-5.67
			c0-0.779,0.637-1.417,1.417-1.417l5.669,0.002c0.779,0,1.418-0.637,1.418-1.417V4.252c0-0.78-0.639-1.417-1.418-1.417H4.251
			c-0.78,0-1.417,0.638-1.417,1.417V17.009z"/>
		<path fill="none" stroke="#231815" stroke-width="1.5" stroke-linecap="round" stroke-miterlimit="10" d="M2.834,17.009
			c0,0.779,0.637,1.417,1.417,1.417l4.251,0.001c0.779,0,1.418-0.638,1.418-1.417v-5.67c0-0.779,0.637-1.417,1.417-1.417
			l5.669,0.002c0.779,0,1.418-0.637,1.418-1.417V4.252c0-0.78-0.639-1.417-1.418-1.417H4.251c-0.78,0-1.417,0.638-1.417,1.417
			V17.009z"/>
	</g>
</g>
<g display="none">
	<g display="inline">
		<path fill="#231815" d="M11.337,24.094c0,0.779,0.638,1.417,1.417,1.417h11.34c0.779,0,1.417-0.639,1.417-1.417V12.753
			c0-0.779-0.638-1.417-1.417-1.417h-1.418c-0.779,0-1.417,0.638-1.417,1.417v7.089c0,0.779-0.638,1.417-1.417,1.417h-7.088
			c-0.779,0-1.417,0.638-1.417,1.417V24.094z"/>
		<path fill="none" stroke="#231815" stroke-width="1.5" stroke-linecap="round" stroke-miterlimit="10" d="M11.337,24.094
			c0,0.779,0.638,1.417,1.417,1.417h11.34c0.779,0,1.417-0.639,1.417-1.417V12.753c0-0.779-0.638-1.417-1.417-1.417h-1.418
			c-0.779,0-1.417,0.638-1.417,1.417v7.089c0,0.779-0.638,1.417-1.417,1.417h-7.088c-0.779,0-1.417,0.638-1.417,1.417V24.094z"/>
	</g>
	<g display="inline">
		<path fill="none" stroke="#231815" stroke-width="1.5" stroke-linecap="round" stroke-miterlimit="10" d="M19.842,7.085
			c0.779,0,1.417,0.637,1.417,1.417v11.34c0,0.779-0.638,1.417-1.417,1.417H8.502c-0.779,0-1.417-0.638-1.417-1.417v-1.418
			c0-0.779,0.638-1.417,1.417-1.417l7.088,0.002c0.779,0,1.417-0.638,1.417-1.417l-0.001-7.088c0-0.78,0.638-1.418,1.418-1.418
			L19.842,7.085z"/>
	</g>
	<g display="inline">
		<path fill="none" stroke="#231815" stroke-width="1.5" stroke-linecap="round" stroke-miterlimit="10" d="M2.833,15.592
			c0,0.779,0.638,1.417,1.417,1.417h11.34c0.779,0,1.417-0.638,1.417-1.417V4.252c0-0.78-0.638-1.417-1.417-1.417H4.25
			c-0.779,0-1.417,0.638-1.417,1.417V15.592z"/>
	</g>
</g>
</svg>
