<?xml version="1.0" encoding="utf-8"?>
<!-- Generator: Adobe Illustrator 16.0.0, SVG Export Plug-In . SVG Version: 6.00 Build 0)  -->
<!DOCTYPE svg PUBLIC "-//W3C//DTD SVG 1.1//EN" "http://www.w3.org/Graphics/SVG/1.1/DTD/svg11.dtd">
<svg version="1.1" id="图层_1" xmlns="http://www.w3.org/2000/svg" xmlns:xlink="http://www.w3.org/1999/xlink" x="0px" y="0px"
	 width="28.347px" height="28.347px" viewBox="0 0 28.347 28.347" enable-background="new 0 0 28.347 28.347" xml:space="preserve">
<g>
	<g>
		<path fill="none" stroke="#231815" stroke-width="1.5" stroke-linecap="round" stroke-miterlimit="10" d="M25.512,8.503
			c0,0.78-0.639,1.417-1.417,1.417H4.252c-0.78,0-1.417-0.638-1.417-1.417V7.086c0-0.78,0.638-1.417,1.417-1.417h19.842
			c0.779,0,1.417,0.638,1.417,1.417V8.503z"/>
	</g>
	<g>
		<path fill="none" stroke="#231815" stroke-width="1.5" stroke-linecap="round" stroke-miterlimit="10" d="M24.094,9.921v14.173
			c0,0.78-0.637,1.417-1.418,1.417H5.669c-0.78,0-1.417-0.638-1.417-1.417V9.921"/>
	</g>
	<g>
		<path fill="none" stroke="#231815" stroke-width="1.5" stroke-linecap="round" stroke-miterlimit="10" d="M8.504,5.669
			c0,0,0-0.638,0-1.417c0-0.78,0.638-1.417,1.417-1.417h8.502c0.782,0,1.418,0.638,1.418,1.417c0,0.779,0,1.417,0,1.417"/>
	</g>
	
		<line fill="none" stroke="#231815" stroke-width="1.5" stroke-linecap="round" stroke-miterlimit="10" x1="14.174" y1="12.756" x2="14.174" y2="22.677"/>
	
		<line fill="none" stroke="#231815" stroke-width="1.5" stroke-linecap="round" stroke-miterlimit="10" x1="9.921" y1="12.756" x2="9.921" y2="22.677"/>
	
		<line fill="none" stroke="#231815" stroke-width="1.5" stroke-linecap="round" stroke-miterlimit="10" x1="18.424" y1="12.756" x2="18.424" y2="22.677"/>
</g>
</svg>
