<?xml version="1.0" encoding="utf-8"?>
<!-- Generator: Adobe Illustrator 16.0.0, SVG Export Plug-In . SVG Version: 6.00 Build 0)  -->
<!DOCTYPE svg PUBLIC "-//W3C//DTD SVG 1.1//EN" "http://www.w3.org/Graphics/SVG/1.1/DTD/svg11.dtd">
<svg version="1.1" id="图层_1" xmlns="http://www.w3.org/2000/svg" xmlns:xlink="http://www.w3.org/1999/xlink" x="0px" y="0px"
	 width="28.347px" height="28.347px" viewBox="0 0 28.347 28.347" enable-background="new 0 0 28.347 28.347" xml:space="preserve">
<g display="none">
	<g display="inline">
		<path fill="none" stroke="#231815" stroke-width="1.5" stroke-linecap="round" stroke-miterlimit="10" d="M24.094,11.338V4.252
			c0-0.78-0.638-1.417-1.417-1.417H2.834c-0.779,0-1.417,0.638-1.417,1.417v17.007c0,0.78,0.638,1.417,1.417,1.417h9.922"/>
	</g>
	
		<polyline display="inline" fill="none" stroke="#231815" stroke-width="1.5" stroke-linecap="round" stroke-linejoin="round" stroke-miterlimit="10" points="
		4.251,17.007 7.086,14.173 9.921,17.008 18.425,8.504 21.26,11.338 	"/>
	
		<circle display="inline" fill="none" stroke="#231815" stroke-width="1.5" stroke-linecap="round" stroke-linejoin="round" stroke-miterlimit="10" cx="8.503" cy="8.504" r="2.834"/>
	
		<circle display="inline" fill="none" stroke="#231815" stroke-width="1.5" stroke-linecap="round" stroke-linejoin="round" stroke-miterlimit="10" cx="21.261" cy="19.842" r="5.669"/>
	
		<line display="inline" fill="none" stroke="#231815" stroke-width="1.5" stroke-linecap="round" stroke-linejoin="round" stroke-miterlimit="10" x1="18.425" y1="19.843" x2="24.094" y2="19.843"/>
	
		<line display="inline" fill="none" stroke="#231815" stroke-width="1.5" stroke-linecap="round" stroke-linejoin="round" stroke-miterlimit="10" x1="21.259" y1="17.008" x2="21.259" y2="22.677"/>
</g>
<g>
	<g>
		<path fill="none" stroke="#231815" stroke-width="1.5" stroke-linecap="round" stroke-miterlimit="10" d="M22.678,8.504
			c0-0.78-0.638-1.417-1.417-1.417H7.086c-0.779,0-1.417,0.638-1.417,1.417v11.338c0,0.78,0.638,1.417,1.417,1.417h14.175
			c0.779,0,1.417-0.638,1.417-1.417V8.504z"/>
	</g>
	<g>
		<path fill="none" stroke="#231815" stroke-width="1.5" stroke-linecap="round" stroke-miterlimit="10" d="M1.417,7.086h2.834
			c0.78,0,1.418-0.638,1.418-1.417V2.834"/>
	</g>
	<g>
		<path fill="none" stroke="#231815" stroke-width="1.5" stroke-linecap="round" stroke-miterlimit="10" d="M26.931,21.26h-2.835
			c-0.779,0-1.417,0.638-1.417,1.417v2.834"/>
	</g>
	
		<polyline fill="none" stroke="#231815" stroke-width="1.5" stroke-linecap="round" stroke-linejoin="round" stroke-miterlimit="10" points="
		19.843,17.008 17.009,14.173 14.174,17.008 	"/>
	
		<polyline fill="none" stroke="#231815" stroke-width="1.5" stroke-linecap="round" stroke-linejoin="round" stroke-miterlimit="10" points="
		5.67,17.008 9.921,12.756 15.591,18.425 	"/>
	
		<circle fill="none" stroke="#231815" stroke-width="1.5" stroke-linecap="round" stroke-linejoin="round" stroke-miterlimit="10" cx="14.174" cy="11.338" r="1.417"/>
</g>
</svg>
