<?xml version="1.0" encoding="utf-8"?>
<!-- Generator: Adobe Illustrator 16.0.0, SVG Export Plug-In . SVG Version: 6.00 Build 0)  -->
<!DOCTYPE svg PUBLIC "-//W3C//DTD SVG 1.1//EN" "http://www.w3.org/Graphics/SVG/1.1/DTD/svg11.dtd">
<svg version="1.1" id="图层_1" xmlns="http://www.w3.org/2000/svg" xmlns:xlink="http://www.w3.org/1999/xlink" x="0px" y="0px"
	 width="28.347px" height="28.347px" viewBox="0 0 28.347 28.347" enable-background="new 0 0 28.347 28.347" xml:space="preserve">
<g>
	<g>
		<path fill="#030000" d="M12.754,4.253c0-0.78-0.256-0.833-0.568-0.119L3.402,24.213c-0.312,0.714,0.07,1.298,0.85,1.298h7.087
			c0.78,0,1.417-0.638,1.417-1.417L12.754,4.253z"/>
		<path fill="none" stroke="#000000" stroke-width="1.5" stroke-linecap="round" stroke-miterlimit="10" d="M12.754,4.253
			c0-0.78-0.256-0.833-0.568-0.119L3.402,24.213c-0.312,0.714,0.07,1.298,0.85,1.298h7.087c0.78,0,1.417-0.638,1.417-1.417
			L12.754,4.253z"/>
	</g>
	<g>
		<path fill="none" stroke="#000000" stroke-width="1.5" stroke-linecap="round" stroke-miterlimit="10" d="M15.59,4.253
			c0-0.78,0.256-0.833,0.568-0.119l8.785,20.079c0.313,0.714-0.069,1.298-0.849,1.298h-7.089c-0.78,0-1.417-0.638-1.417-1.417
			L15.59,4.253z"/>
	</g>
</g>
<g display="none">
	<g display="inline">
		<path fill="#030000" d="M24.094,12.754c0.78,0,0.833-0.256,0.119-0.568L4.134,3.402C3.42,3.09,2.836,3.472,2.836,4.252v7.087
			c0,0.78,0.638,1.417,1.417,1.417L24.094,12.754z"/>
		<path fill="none" stroke="#000000" stroke-width="1.5" stroke-linecap="round" stroke-miterlimit="10" d="M24.094,12.754
			c0.78,0,0.833-0.256,0.119-0.568L4.134,3.402C3.42,3.09,2.836,3.472,2.836,4.252v7.087c0,0.78,0.638,1.417,1.417,1.417
			L24.094,12.754z"/>
	</g>
	<g display="inline">
		<path fill="none" stroke="#000000" stroke-width="1.5" stroke-linecap="round" stroke-miterlimit="10" d="M24.094,15.59
			c0.78,0,0.833,0.256,0.119,0.568L4.134,24.942c-0.714,0.312-1.298-0.07-1.298-0.85v-7.087c0-0.78,0.638-1.417,1.417-1.417
			L24.094,15.59z"/>
	</g>
</g>
</svg>
