<?xml version="1.0" encoding="utf-8"?>
<!-- Generator: Adobe Illustrator 16.0.0, SVG Export Plug-In . SVG Version: 6.00 Build 0)  -->
<!DOCTYPE svg PUBLIC "-//W3C//DTD SVG 1.1//EN" "http://www.w3.org/Graphics/SVG/1.1/DTD/svg11.dtd">
<svg version="1.1" id="图层_1" xmlns="http://www.w3.org/2000/svg" xmlns:xlink="http://www.w3.org/1999/xlink" x="0px" y="0px"
	 width="56.693px" height="56.693px" viewBox="0 0 56.693 56.693" enable-background="new 0 0 56.693 56.693" xml:space="preserve">
<g>
	<g>
		<path fill="none" stroke="#FFFFFF" stroke-width="1.5" stroke-linecap="round" stroke-miterlimit="10" d="M39.685,18.425
			c0-0.78-0.638-1.417-1.417-1.417H31.18c-0.779,0-1.417,0.638-1.417,1.417v7.086c0,0.78,0.638,1.417,1.417,1.417h7.088
			c0.779,0,1.417-0.638,1.417-1.417V18.425z"/>
	</g>
	<g>
		<path fill="none" stroke="#FFFFFF" stroke-width="1.5" stroke-linecap="round" stroke-miterlimit="10" d="M26.929,18.425
			c0-0.78-0.638-1.417-1.417-1.417h-7.087c-0.78,0-1.417,0.638-1.417,1.417v19.843c0,0.779,0.638,1.417,1.417,1.417h7.087
			c0.78,0,1.417-0.638,1.417-1.417V18.425z"/>
	</g>
	<g>
		<path fill="none" stroke="#FFFFFF" stroke-width="1.5" stroke-linecap="round" stroke-miterlimit="10" d="M39.685,31.18
			c0-0.779-0.638-1.417-1.417-1.417H31.18c-0.779,0-1.417,0.638-1.417,1.417v7.088c0,0.779,0.638,1.417,1.417,1.417h7.088
			c0.779,0,1.417-0.638,1.417-1.417V31.18z"/>
	</g>
</g>
</svg>
