<?xml version="1.0" encoding="utf-8"?>
<!-- Generator: Adobe Illustrator 16.0.0, SVG Export Plug-In . SVG Version: 6.00 Build 0)  -->
<!DOCTYPE svg PUBLIC "-//W3C//DTD SVG 1.1//EN" "http://www.w3.org/Graphics/SVG/1.1/DTD/svg11.dtd">
<svg version="1.1" id="图层_1" xmlns="http://www.w3.org/2000/svg" xmlns:xlink="http://www.w3.org/1999/xlink" x="0px" y="0px"
	 width="56.689px" height="56.689px" viewBox="0 0 56.689 56.689" enable-background="new 0 0 56.689 56.689" xml:space="preserve">
<g>
	<g>
		<path fill="none" stroke="#FFFFFF" stroke-width="1.5" stroke-linecap="round" stroke-miterlimit="10" d="M32.598,35.432h5.669
			c0.779,0,1.417-0.638,1.417-1.417v-15.59c0-0.78-0.638-1.417-1.417-1.417H21.259c-0.78,0-1.417,0.638-1.417,1.417
			c0,0.78,0,1.417,0,1.417"/>
	</g>
	<g>
		<path fill="none" stroke="#FFFFFF" stroke-width="1.5" stroke-linecap="round" stroke-miterlimit="10" d="M22.676,35.432
			c0,0-0.638,0-1.417,0c-0.78,0-1.417-0.638-1.417-1.417v-4.252"/>
	</g>
	<path fill="none" stroke="#FFFFFF" stroke-width="1.5" stroke-linecap="round" stroke-miterlimit="10" d="M28.346,38.267
		c0,0.782-0.635,1.417-1.417,1.417l0,0c-0.783,0-1.417-0.635-1.417-1.417v-4.252c0-0.782,0.635-1.417,1.417-1.417l0,0
		c0.783,0,1.417,0.635,1.417,1.417V38.267z"/>
	<g>
		<path fill="none" stroke="#FFFFFF" stroke-width="1.5" stroke-linecap="round" stroke-miterlimit="10" d="M26.928,32.598
			c0,0,0-0.319,0-0.709s0.629-0.813,1.398-0.942l5.708-0.949c0.77-0.129,1.397-0.871,1.397-1.651v-1.417
			c0-0.78-0.638-1.417-1.417-1.417s-1.417,0-1.417,0"/>
	</g>
	<path fill="none" stroke="#FFFFFF" stroke-width="1.5" stroke-linecap="round" stroke-miterlimit="10" d="M32.598,25.511
		c0,0.783-0.635,1.417-1.418,1.417H18.424c-0.783,0-1.417-0.635-1.417-1.417v-1.417c0-0.783,0.635-1.417,1.417-1.417H31.18
		c0.783,0,1.418,0.635,1.418,1.417V25.511z"/>
</g>
</svg>
