<?xml version="1.0" encoding="utf-8"?>
<!-- Generator: Adobe Illustrator 16.0.0, SVG Export Plug-In . SVG Version: 6.00 Build 0)  -->
<!DOCTYPE svg PUBLIC "-//W3C//DTD SVG 1.1//EN" "http://www.w3.org/Graphics/SVG/1.1/DTD/svg11.dtd">
<svg version="1.1" id="图层_1" xmlns="http://www.w3.org/2000/svg" xmlns:xlink="http://www.w3.org/1999/xlink" x="0px" y="0px"
	 width="56.69px" height="56.69px" viewBox="0 0 56.69 56.69" enable-background="new 0 0 56.69 56.69" xml:space="preserve">
<g>
	<path fill="none" stroke="#FFFFFF" stroke-width="1.5" stroke-linecap="round" stroke-linejoin="round" stroke-miterlimit="10" d="
		M39.756,18.843c0-0.78-0.638-1.417-1.417-1.417H18.496c-0.78,0-1.417,0.638-1.417,1.417v2.834c0,0.78,0.638,1.417,1.417,1.417
		h5.669c0.78,0,1.417,0.638,1.417,1.417v14.173c0,0.779,0.638,1.417,1.417,1.417h2.835c0.779,0,1.417-0.638,1.417-1.417V24.512
		c0-0.78,0.638-1.417,1.417-1.417h5.67c0.779,0,1.417-0.638,1.417-1.417V18.843z"/>
</g>
</svg>
