<?xml version="1.0" encoding="utf-8"?>
<!-- Generator: Adobe Illustrator 16.0.0, SVG Export Plug-In . SVG Version: 6.00 Build 0)  -->
<!DOCTYPE svg PUBLIC "-//W3C//DTD SVG 1.1//EN" "http://www.w3.org/Graphics/SVG/1.1/DTD/svg11.dtd">
<svg version="1.1" id="图层_1" xmlns="http://www.w3.org/2000/svg" xmlns:xlink="http://www.w3.org/1999/xlink" x="0px" y="0px"
	 width="425.197px" height="155.906px" viewBox="-29.098 -7.453 425.197 155.906"
	 enable-background="new -29.098 -7.453 425.197 155.906" xml:space="preserve">
<g>
	<polygon fill="#FFFFFF" points="125.285,54.685 116.537,104.291 125.877,115.631 138.622,43.347 115.945,43.347 	"/>
	<polygon fill="#FFFFFF" points="128.033,39.094 139.372,39.094 130.033,27.756 	"/>
	<polygon fill="#FFFFFF" points="170.728,94.371 168.729,105.709 176.9,115.631 178.898,104.291 	"/>
	<polygon fill="#FFFFFF" points="185.397,67.441 185.396,67.441 159.886,67.441 168.943,78.438 132.378,102.875 130.129,115.631 
		183.147,80.197 183.397,78.779 183.398,78.779 185.398,67.441 	"/>
	<polygon fill="#FFFFFF" points="191.396,33.425 144.623,33.425 144.623,33.426 144.623,33.426 142.625,44.765 151.965,56.103 
		154.963,39.094 179.058,39.094 175.06,61.771 186.396,61.771 191.396,33.426 191.396,33.426 	"/>
	<polygon fill="#FFFFFF" points="210.324,54.685 201.576,104.291 210.916,115.631 223.66,43.347 200.984,43.347 	"/>
	<polygon fill="#FFFFFF" points="213.072,39.094 224.41,39.094 215.072,27.756 	"/>
	<polygon fill="#FFFFFF" points="266.096,27.756 254.758,27.756 249.76,56.103 225.664,56.103 230.334,61.771 248.76,61.771 
		239.264,115.631 252.602,104.291 260.098,61.771 271.438,61.771 272.438,56.103 261.098,56.103 	"/>
	<polygon fill="#FFFFFF" points="330.971,109.961 338.469,67.439 351.805,56.103 340.469,56.103 343.467,39.095 334.129,27.756 
		319.633,109.961 295.539,109.961 308.034,39.094 298.697,27.756 293.699,56.101 293.695,56.101 282.357,56.101 291.697,67.439 
		291.699,67.439 284.201,109.961 272.861,109.961 266.193,115.631 341.311,115.631 347.979,109.961 	"/>
</g>
<g>
	<g>
		<g>
			<path fill="#FFFFFF" d="M57.377,24.922c-15.655,0-28.348,12.691-28.348,28.345c0,15.656,12.691,28.348,28.348,28.348
				c7.827,0,14.173,6.346,14.173,14.174c0,7.826-6.346,14.172-14.173,14.172l0,0c-23.482,0-42.521-19.037-42.521-42.52
				S33.895,24.922,57.377,24.922z"/>
		</g>
		<path fill="#BAE2F8" d="M64.466,19.252c-26.639,0-48.367,21-49.55,47.345c1.177-23.214,20.373-41.676,43.88-41.676
			c13.575,0,25.71,6.161,33.77,15.835l6.976-6.975C90.563,24.805,78.162,19.252,64.466,19.252z"/>
	</g>
	<g>
		<g>
			<path fill="#BAE2F8" d="M64.464,117.049c15.655,0,28.346-12.691,28.346-28.346c0-15.657-12.689-28.348-28.346-28.348
				c-7.827,0-14.173-6.346-14.173-14.174c0-7.827,6.346-14.173,14.173-14.173l0,0c23.481,0,42.52,19.038,42.52,42.52
				C106.983,98.012,87.946,117.049,64.464,117.049z"/>
		</g>
		<path fill="#FFFFFF" d="M57.375,122.717c26.639,0,48.366-21,49.55-47.344c-1.178,23.213-20.373,41.676-43.88,41.676
			c-13.575,0-25.71-6.16-33.771-15.836l-6.975,6.975C31.277,117.164,43.679,122.717,57.375,122.717z"/>
	</g>
</g>
</svg>
